<?xml version="1.0" standalone="no"?>
<!DOCTYPE svg PUBLIC "-//W3C//DTD SVG 20010904//EN"
 "http://www.w3.org/TR/2001/REC-SVG-20010904/DTD/svg10.dtd">
<svg version="1.0" xmlns="http://www.w3.org/2000/svg"
 width="2025.000000pt" height="2025.000000pt" viewBox="0 0 2025.000000 2025.000000"
 preserveAspectRatio="xMidYMid meet">
<metadata>
Created by potrace 1.14, written by Peter Selinger 2001-2017
</metadata>
<g transform="translate(0.000000,2025.000000) scale(0.100000,-0.100000)"
fill="#000000" stroke="none">
<path d="M4992 18465 c-12 -14 -31 -25 -43 -25 -15 0 -19 -4 -15 -16 3 -9 6
-18 6 -20 0 -2 9 -4 20 -4 14 0 18 5 13 17 -4 11 -3 14 6 9 6 -4 18 -3 26 4 9
7 15 8 20 0 12 -20 21 -10 22 25 1 43 -23 47 -55 10z"/>
<path d="M4832 18397 c-13 -14 -19 -26 -14 -28 5 -2 15 -17 23 -34 8 -17 24
-32 39 -35 14 -3 29 -15 35 -27 8 -18 16 -21 42 -18 33 4 52 -8 33 -20 -6 -4
-15 -18 -20 -31 -14 -36 -50 -33 -50 4 0 23 -8 33 -35 48 -19 10 -35 24 -35
31 0 8 -9 11 -29 7 -25 -5 -30 -2 -39 25 -11 32 -30 39 -50 19 -9 -9 -8 -16 4
-29 20 -22 10 -39 -23 -39 -18 0 -24 -4 -19 -15 3 -8 1 -15 -3 -15 -5 0 -7 -9
-4 -20 4 -15 0 -20 -16 -20 -11 0 -21 -4 -21 -10 0 -5 -7 -10 -15 -10 -17 0
-20 32 -5 61 18 32 -28 24 -88 -16 -48 -33 -52 -39 -52 -75 0 -43 -16 -52 -44
-25 -23 24 -39 18 -92 -32 -33 -32 -56 -47 -70 -45 -22 3 -34 -7 -107 -86 -25
-28 -46 -42 -63 -42 -17 0 -42 -17 -79 -54 -30 -29 -65 -56 -78 -60 -13 -3
-39 -21 -59 -40 -19 -18 -49 -41 -65 -50 -17 -8 -46 -33 -64 -54 -19 -21 -51
-48 -71 -61 -21 -12 -38 -27 -38 -32 0 -5 -18 -20 -40 -34 -22 -14 -75 -59
-118 -100 -42 -41 -114 -107 -160 -147 -46 -40 -89 -82 -95 -94 -7 -13 -31
-35 -54 -51 -47 -31 -297 -276 -414 -405 -42 -45 -113 -123 -158 -173 -107
-116 -329 -389 -416 -510 -22 -30 -82 -110 -134 -178 -96 -126 -108 -142 -175
-243 -22 -32 -59 -83 -83 -112 -24 -29 -52 -69 -63 -90 -11 -20 -51 -84 -90
-142 -60 -91 -99 -155 -170 -282 -8 -15 -44 -78 -80 -140 -36 -62 -70 -130
-77 -151 -7 -21 -28 -61 -48 -88 -19 -27 -35 -52 -35 -55 0 -4 -15 -39 -34
-78 -19 -39 -46 -96 -59 -126 -14 -30 -35 -71 -46 -90 -10 -19 -33 -66 -51
-105 -17 -38 -40 -87 -50 -107 -11 -20 -20 -46 -20 -56 0 -11 -7 -25 -15 -32
-8 -7 -15 -17 -15 -23 0 -6 -8 -29 -18 -51 -32 -69 -72 -176 -72 -189 0 -7 -9
-30 -19 -51 -11 -21 -23 -52 -27 -69 -3 -18 -9 -36 -13 -42 -11 -15 -59 -146
-67 -180 -5 -26 -65 -214 -96 -300 -62 -179 -78 -231 -112 -375 -7 -30 -17
-64 -23 -75 -6 -11 -14 -47 -18 -80 -4 -33 -13 -71 -20 -85 -7 -14 -16 -48
-20 -75 -4 -28 -14 -62 -21 -76 -7 -15 -18 -66 -24 -114 -6 -49 -15 -95 -19
-104 -5 -9 -14 -56 -20 -106 -7 -49 -18 -119 -26 -155 -8 -36 -18 -96 -23
-135 -6 -38 -15 -88 -20 -110 -6 -22 -13 -80 -17 -130 -4 -49 -12 -103 -19
-120 -7 -17 -11 -45 -8 -63 2 -18 0 -38 -6 -45 -5 -6 -10 -53 -11 -104 -1 -99
-16 -224 -30 -251 -12 -24 -16 -313 -13 -902 3 -578 6 -693 22 -736 6 -16 15
-108 20 -204 5 -96 16 -198 24 -226 7 -28 17 -86 21 -130 3 -43 14 -101 23
-129 8 -27 16 -81 17 -120 0 -38 7 -83 14 -100 7 -16 19 -64 26 -105 41 -245
63 -337 111 -475 8 -23 14 -50 14 -62 0 -12 11 -59 25 -105 14 -46 35 -114 46
-153 11 -38 25 -83 30 -100 6 -16 17 -53 24 -81 7 -28 18 -61 24 -73 7 -12 18
-44 25 -69 8 -26 26 -78 41 -117 14 -38 29 -79 32 -90 5 -20 42 -105 69 -158
8 -16 14 -36 14 -44 0 -9 20 -58 45 -110 25 -51 45 -98 45 -103 0 -6 9 -27 20
-47 11 -21 20 -45 20 -54 0 -9 9 -28 20 -42 11 -14 20 -33 20 -44 0 -10 9 -33
20 -51 11 -18 20 -41 20 -51 0 -10 6 -24 14 -30 8 -6 19 -26 26 -44 7 -18 20
-50 30 -72 10 -22 28 -62 40 -90 34 -76 199 -407 209 -419 5 -6 17 -31 27 -56
9 -25 30 -63 46 -84 15 -22 28 -44 28 -50 0 -5 7 -17 16 -27 18 -20 42 -62 75
-129 12 -25 34 -63 49 -85 15 -22 43 -65 62 -95 19 -30 44 -68 54 -84 25 -37
91 -140 129 -200 17 -26 45 -66 64 -89 19 -23 40 -58 49 -77 8 -19 35 -58 62
-86 26 -29 54 -67 63 -86 8 -18 30 -46 47 -63 18 -16 43 -50 58 -75 14 -25 33
-52 42 -60 29 -25 110 -130 110 -142 0 -6 26 -39 58 -72 32 -34 71 -82 86
-108 15 -25 70 -91 123 -145 85 -87 182 -192 346 -376 91 -102 351 -361 387
-387 61 -43 151 -120 178 -153 15 -18 31 -35 37 -39 5 -3 19 -13 30 -22 11 -9
48 -33 81 -55 34 -21 74 -56 90 -76 16 -21 47 -46 71 -56 23 -10 59 -36 80
-57 37 -39 58 -53 133 -97 19 -11 54 -39 76 -61 23 -23 52 -45 64 -49 13 -4
47 -32 77 -61 29 -30 57 -54 63 -54 20 0 96 -54 120 -85 17 -23 36 -35 60 -39
26 -4 43 -17 64 -46 23 -31 34 -38 52 -34 17 4 32 -3 56 -25 50 -48 137 -101
164 -101 14 0 30 -10 39 -24 9 -14 28 -29 43 -34 15 -5 42 -23 60 -41 25 -23
40 -29 57 -25 18 4 31 -1 50 -20 14 -14 36 -26 49 -26 14 0 30 -10 40 -25 10
-16 26 -25 42 -25 13 0 27 -7 30 -15 4 -9 31 -27 60 -41 30 -14 59 -34 65 -45
8 -16 17 -19 39 -14 24 5 34 1 53 -19 14 -14 34 -26 46 -26 11 0 31 -11 43
-25 13 -15 32 -25 49 -25 18 0 32 -7 40 -21 7 -14 17 -19 30 -16 12 3 29 -4
44 -17 16 -15 33 -22 49 -19 16 3 29 -3 44 -21 11 -14 35 -29 53 -33 19 -3 45
-14 58 -25 13 -10 34 -18 47 -18 13 0 33 -9 44 -20 11 -11 33 -20 49 -20 16 0
31 -6 35 -15 3 -9 18 -15 40 -15 27 0 40 -6 51 -24 11 -16 30 -27 55 -31 21
-4 44 -13 51 -21 6 -8 27 -14 45 -14 23 0 38 -6 46 -20 10 -15 24 -20 55 -20
33 0 43 -4 48 -20 6 -20 20 -25 67 -21 19 2 32 -5 43 -22 11 -17 28 -26 56
-30 22 -3 49 -13 60 -22 13 -13 28 -16 49 -11 25 5 36 1 54 -19 18 -19 33 -25
65 -25 30 0 44 -5 53 -20 10 -16 24 -20 62 -20 39 0 53 -5 71 -24 19 -20 29
-24 62 -19 34 4 41 2 57 -21 15 -24 21 -26 64 -20 42 5 49 3 70 -21 20 -23 28
-25 66 -20 38 6 47 3 72 -20 25 -24 35 -26 77 -22 41 3 53 0 77 -19 22 -19 39
-24 87 -24 47 0 64 -4 78 -20 15 -16 31 -20 83 -20 54 0 70 -4 90 -22 20 -20
33 -23 88 -21 55 3 67 0 87 -20 19 -19 32 -22 107 -22 68 0 91 -4 115 -20 23
-16 47 -20 120 -21 69 -1 101 -7 138 -24 40 -18 59 -20 110 -15 55 6 68 3 111
-20 46 -25 55 -26 185 -24 112 2 143 -1 176 -15 31 -14 80 -20 215 -26 96 -3
184 -4 195 0 29 10 316 -7 329 -20 6 -6 95 -10 247 -10 187 0 251 3 301 16 48
13 115 17 289 18 150 1 231 5 240 12 24 20 90 27 214 25 106 -2 126 1 170 20
41 19 69 23 156 23 90 1 110 4 128 20 17 16 38 19 119 20 86 1 101 4 127 24
26 21 37 23 87 18 50 -6 62 -4 116 24 53 29 63 31 97 21 30 -8 44 -7 64 4 73
40 96 47 143 41 41 -6 48 -4 58 14 9 17 21 20 72 20 43 0 70 6 93 20 17 11 59
26 94 34 34 8 68 20 76 26 7 6 33 10 57 9 34 -2 49 2 66 19 16 16 34 22 70 22
36 0 50 5 60 20 9 15 23 20 60 20 35 0 52 5 65 20 12 14 29 20 61 20 35 0 51
6 71 25 20 21 31 25 58 20 26 -5 36 -2 55 19 16 20 31 26 61 26 25 0 41 5 45
15 4 10 20 15 51 15 36 0 50 5 67 25 15 17 32 25 54 25 18 0 37 6 41 14 4 7
28 16 51 19 29 3 49 13 59 26 10 15 25 21 52 21 21 0 44 6 50 14 7 8 28 17 49
21 20 4 46 18 59 31 15 16 33 24 55 24 22 0 37 7 46 20 7 12 23 20 41 20 16 0
34 6 40 14 6 7 28 16 49 19 21 4 42 15 49 25 6 11 24 23 39 26 15 4 41 17 58
29 17 12 45 21 65 21 20 0 42 7 53 18 10 10 28 18 41 18 12 0 30 8 39 18 35
35 55 50 135 95 45 26 91 47 102 47 11 0 25 9 31 20 7 13 21 20 40 20 19 0 33
7 40 19 5 11 19 23 30 26 11 3 43 22 71 41 28 19 61 34 73 34 13 0 33 11 46
25 13 14 34 25 46 25 14 0 25 8 29 19 3 11 21 25 39 31 19 6 41 19 50 29 9 10
36 27 59 37 23 10 60 33 81 51 22 18 48 33 58 33 10 0 30 13 44 30 15 16 46
39 70 50 23 12 44 25 46 29 6 16 271 205 290 206 10 1 38 21 61 46 23 24 81
74 127 111 47 36 110 87 140 112 30 26 69 53 87 61 17 8 41 27 53 42 37 47
173 164 217 187 23 11 56 40 72 63 17 24 37 43 44 43 6 0 53 44 102 98 50 53
119 124 155 157 36 33 85 83 109 110 75 85 267 279 306 309 20 15 39 36 42 45
3 9 19 30 35 46 55 57 333 380 382 445 28 36 87 108 132 160 46 54 108 142
144 205 34 61 73 121 85 135 13 14 30 39 39 57 9 17 34 52 56 78 22 25 40 52
40 60 0 7 11 27 25 43 14 17 25 33 25 37 0 7 121 213 150 256 10 14 39 66 64
115 64 123 94 175 111 194 8 9 15 20 15 24 0 4 20 41 44 84 85 151 99 177 112
202 125 256 221 459 229 488 3 12 11 22 16 22 5 0 9 7 9 17 0 15 13 44 71 169
10 22 19 45 19 51 0 7 16 42 35 79 19 37 38 86 41 108 4 23 14 55 24 71 9 17
20 50 24 74 3 24 13 56 21 72 8 15 15 37 15 48 0 12 11 53 24 93 13 40 34 111
46 158 12 47 30 114 40 150 10 36 28 101 40 145 12 44 31 110 42 147 11 36 22
86 25 110 3 23 11 54 18 68 7 14 16 48 20 75 4 28 12 59 18 70 6 11 16 57 24
103 7 45 22 99 33 120 15 27 19 47 14 78 -4 27 1 63 15 110 11 38 23 105 26
149 4 44 13 94 20 110 7 17 16 71 19 120 3 50 12 115 20 145 8 30 19 139 26
242 6 104 17 212 25 241 11 42 14 187 13 727 0 400 -4 693 -9 720 -24 110 -29
153 -34 275 -2 80 -10 146 -19 171 -8 23 -18 95 -22 160 -4 67 -13 131 -20
146 -8 15 -17 69 -20 120 -3 55 -13 112 -24 138 -10 25 -22 86 -25 135 -4 50
-12 106 -20 125 -7 19 -16 62 -20 94 -4 33 -11 71 -17 85 -5 14 -16 58 -23 96
-16 80 -31 140 -52 205 -8 25 -20 70 -27 100 -37 157 -181 612 -231 730 -23
55 -61 149 -116 288 -16 40 -40 99 -54 130 -34 75 -46 102 -85 192 -66 153
-198 424 -274 565 -30 55 -62 116 -71 135 -10 19 -23 42 -30 50 -7 8 -28 44
-47 80 -19 36 -46 83 -60 105 -14 22 -38 65 -53 95 -15 30 -59 102 -97 158
-38 57 -78 120 -89 140 -11 21 -30 51 -42 67 -12 17 -49 68 -81 115 -33 47
-84 116 -115 155 -31 38 -69 89 -86 112 -16 23 -69 93 -117 155 -48 62 -114
148 -146 191 -79 103 -127 158 -186 215 -26 26 -54 58 -61 72 -20 38 -668 679
-805 796 -30 26 -99 89 -153 140 -53 51 -118 106 -145 121 -66 38 -112 73
-145 111 -16 17 -38 32 -49 32 -12 0 -30 9 -42 20 -42 41 -149 125 -180 142
-42 23 -64 22 -86 -4 -10 -13 -22 -20 -26 -16 -4 4 5 17 19 28 28 22 27 35 -6
83 -14 20 -27 28 -46 27 -46 -3 -52 -1 -63 30 -15 44 -51 50 -88 15 -32 -30
-59 -30 -75 1 -22 44 -59 74 -92 74 -23 0 -33 -5 -33 -15 0 -8 5 -15 10 -15 6
0 15 -12 21 -27 8 -23 7 -30 -8 -40 -10 -7 -22 -16 -28 -21 -5 -4 -29 -16 -53
-25 -40 -16 -43 -16 -49 0 -4 10 3 24 20 39 39 33 35 48 -10 40 -21 -3 -44 -6
-50 -6 -8 0 -13 -14 -13 -35 0 -28 -4 -35 -20 -35 -10 0 -24 9 -30 20 -9 18
-21 20 -96 20 -77 0 -86 2 -91 20 -3 11 -12 20 -19 20 -8 0 -22 -9 -31 -20
-13 -15 -30 -20 -70 -20 -51 0 -53 -1 -54 -27 0 -16 -3 -22 -6 -15 -2 6 -13
12 -24 12 -10 0 -19 5 -19 10 0 6 -4 10 -9 10 -12 0 -21 -38 -10 -42 5 -2 11
-34 13 -71 3 -51 0 -67 -10 -67 -8 0 -16 11 -20 25 -8 31 -24 32 -52 2 -14
-15 -22 -36 -22 -60 0 -41 -22 -51 -40 -18 -7 15 -6 27 8 51 16 30 16 31 -3
45 -47 34 -65 60 -71 96 -6 39 -34 66 -53 54 -13 -7 -5 -165 8 -178 6 -6 11
-17 11 -25 0 -8 6 -12 15 -8 10 3 15 -1 15 -14 0 -27 -30 -29 -57 -3 -12 13
-33 23 -46 23 -14 0 -27 7 -31 18 -3 9 -13 28 -21 42 -13 22 -13 25 0 28 8 2
15 7 15 12 0 15 -85 -2 -101 -21 -9 -10 -19 -15 -23 -12 -3 4 -6 1 -6 -5 0 -7
-9 -12 -20 -12 -24 0 -25 -6 -6 -26 19 -18 42 -18 50 1 7 19 25 19 32 0 9 -22
-50 -73 -81 -71 -14 0 -25 4 -25 9 0 13 -31 8 -46 -8 -9 -8 -24 -15 -35 -15
-14 0 -19 -7 -19 -25 0 -22 3 -25 25 -19 28 7 34 -10 9 -24 -13 -7 -11 -13 16
-40 36 -37 35 -56 -3 -60 -24 -3 -27 0 -27 26 0 16 -6 35 -14 41 -22 18 -78 1
-114 -35 -18 -18 -38 -31 -46 -28 -7 3 -20 -1 -27 -9 -8 -7 -20 -12 -27 -9 -6
2 -12 -3 -12 -12 0 -23 -13 -20 -44 9 -33 30 -46 31 -75 4 l-23 -21 27 -28
c33 -34 27 -39 -70 -61 -70 -15 -70 -15 -71 -50 -2 -53 -3 -59 -13 -59 -5 0
-23 14 -40 31 -24 24 -32 42 -37 85 -6 44 -10 54 -25 54 -11 0 -19 -7 -19 -15
0 -10 -10 -15 -28 -15 -15 0 -40 -6 -56 -12 -25 -12 -27 -17 -22 -50 5 -30 3
-38 -9 -38 -8 0 -15 4 -15 8 0 5 -17 14 -37 21 -21 7 -43 14 -49 17 -6 2 -23
-7 -37 -22 -15 -15 -27 -22 -27 -15 0 6 -13 11 -30 11 -16 0 -30 -4 -30 -10 0
-5 -11 -10 -25 -10 -14 0 -25 5 -25 11 0 7 -13 9 -37 5 -21 -4 -53 -7 -71 -6
-18 0 -34 -6 -36 -12 -2 -7 -9 -31 -15 -53 -10 -38 -15 -42 -76 -65 -71 -26
-82 -44 -35 -53 21 -5 30 -12 30 -27 0 -31 -55 -28 -76 5 -21 33 -34 32 -34
-3 0 -15 -5 -33 -12 -40 -9 -9 -9 -18 0 -37 19 -42 15 -65 -11 -65 -12 0 -28
-9 -35 -20 -10 -16 -23 -20 -67 -20 -52 0 -55 1 -55 25 0 14 -6 25 -12 26 -7
0 -25 3 -40 5 -40 7 -36 -25 7 -56 43 -32 44 -40 1 -40 -23 0 -38 7 -49 23
-16 22 -16 22 -16 -10 -1 -26 -5 -33 -21 -33 -15 0 -20 7 -20 25 0 18 -5 25
-19 25 -57 0 -73 46 -21 57 37 7 39 30 5 67 -14 15 -25 23 -25 19 0 -5 -8 -9
-17 -10 -45 -3 -110 -27 -128 -48 -31 -34 -55 -39 -55 -11 0 29 -22 49 -44 40
-24 -9 -15 -37 16 -52 15 -7 30 -21 33 -32 9 -28 55 -28 55 0 0 16 7 20 30 20
30 0 30 -1 24 -40 -6 -38 -5 -40 19 -40 14 0 27 7 31 15 9 24 26 17 26 -10 0
-14 -6 -25 -13 -25 -7 0 -20 -9 -30 -20 -18 -21 -47 -17 -47 6 0 10 -12 14
-39 14 -49 0 -71 8 -71 26 0 8 -10 14 -23 14 -13 0 -27 3 -31 7 -14 14 -103
30 -125 22 -11 -5 -21 -17 -21 -28 0 -19 25 -31 67 -31 14 0 27 -10 35 -27 9
-19 24 -29 47 -34 39 -8 59 -31 34 -40 -9 -3 -19 -13 -22 -22 -5 -14 -10 -14
-31 -4 -14 7 -26 22 -28 33 -2 15 -16 25 -45 34 -23 8 -51 21 -62 31 -11 10
-29 26 -40 36 -25 23 -48 23 -72 0 -37 -33 -51 -21 -33 27 16 43 4 54 -56 55
-59 0 -71 -14 -24 -30 33 -12 40 -33 13 -43 -29 -9 -87 -45 -98 -59 -5 -8 -23
-16 -38 -19 -23 -4 -32 0 -53 28 -15 20 -31 31 -40 27 -25 -9 -15 -32 22 -49
26 -12 34 -22 32 -38 -4 -31 -43 -32 -73 -2 -27 27 -45 33 -45 16 0 -5 -4 -10
-10 -10 -5 0 -10 7 -10 15 0 9 -12 20 -27 26 -34 13 -43 26 -43 62 0 32 -15
35 -38 7 -10 -11 -32 -23 -49 -26 -30 -6 -33 -4 -33 19 0 22 6 26 40 32 22 4
40 11 40 15 0 9 -28 40 -36 40 -10 0 -50 -26 -57 -37 -4 -7 -19 -13 -33 -13
-34 0 -43 -29 -16 -51 12 -9 22 -22 22 -27 0 -12 -38 -20 -92 -21 -30 0 -37 3
-40 22 -3 20 -9 22 -77 23 -65 2 -76 5 -98 28 -28 31 -46 33 -72 7 -19 -19
-19 -19 -24 0 -10 40 -97 15 -97 -28 0 -12 7 -14 35 -9 25 5 35 3 35 -6 0 -13
50 -42 58 -33 2 2 5 16 5 29 0 23 3 25 26 19 35 -8 41 -12 41 -28 0 -18 -31
-35 -64 -35 -30 0 -26 -25 5 -35 10 -4 19 -15 19 -26 0 -23 -6 -24 -26 -4 -9
8 -25 15 -37 15 -13 0 -33 7 -46 17 -21 14 -25 14 -35 1 -12 -16 -66 -30 -66
-18 0 4 9 14 20 21 10 8 22 26 26 42 6 26 5 27 -34 27 -31 0 -47 7 -77 34
l-37 34 18 31 c10 17 15 34 11 38 -4 4 -29 7 -55 7 l-47 1 0 -38 c0 -21 -6
-41 -14 -46 -8 -5 -11 -15 -8 -23 3 -8 1 -21 -4 -29 -7 -12 -13 -11 -38 4 -16
9 -34 17 -40 17 -7 0 -21 9 -33 20 -19 17 -36 20 -115 20 -92 0 -93 0 -93 24
0 38 -15 39 -53 6 -19 -16 -39 -30 -45 -30 -6 0 -18 -10 -26 -21 -14 -21 -16
-21 -40 -5 -26 17 -66 22 -66 8 0 -5 9 -18 20 -30 11 -12 20 -26 20 -32 0 -13
-37 -13 -46 1 -4 7 -30 9 -75 5 -63 -6 -69 -5 -69 13 0 22 25 45 40 36 6 -4
10 6 10 25 0 27 -2 30 -19 20 -11 -5 -38 -10 -60 -10 -21 0 -46 -3 -55 -6 -19
-7 -21 -34 -3 -34 17 0 47 -32 47 -48 0 -16 -52 -4 -63 15 -4 7 -16 13 -27 13
-10 0 -25 6 -32 13 -47 42 -106 49 -138 15 -11 -12 -20 -28 -20 -35 0 -18 -40
-16 -60 2 -21 19 -48 10 -52 -18 -4 -30 -63 -47 -85 -24 -14 14 -18 14 -39 0
-30 -19 -30 -44 -1 -70 27 -22 87 -27 87 -6 0 20 38 16 49 -6 12 -21 5 -31
-21 -31 -10 0 -23 -10 -27 -22 -8 -20 -10 -21 -16 -5 -5 12 -18 17 -46 17 -36
0 -40 3 -46 30 -4 20 -13 32 -28 36 -27 7 -38 39 -23 64 17 27 3 50 -32 50
-29 0 -31 -2 -29 -32 4 -63 0 -78 -21 -78 -14 0 -20 7 -20 23 0 28 -35 62 -72
71 -21 5 -28 12 -28 30 0 35 -22 49 -54 35 -35 -16 -33 -41 4 -57 17 -8 30
-18 30 -23 0 -15 -33 -10 -67 11 -38 23 -45 60 -13 60 13 0 20 7 20 20 0 13
-7 20 -20 20 -13 0 -20 -7 -20 -20 0 -15 -7 -20 -25 -20 -14 0 -29 -8 -35 -20
-13 -23 -40 -27 -40 -5 0 9 -9 15 -25 15 -16 0 -25 -6 -25 -15 0 -17 -46 -39
-61 -29 -5 3 -9 25 -9 50 0 38 -3 45 -17 42 -13 -2 -19 -14 -21 -40 -3 -30 -6
-35 -23 -31 -10 3 -19 9 -19 14 0 5 -11 15 -25 21 -14 6 -25 17 -25 25 0 7
-11 13 -25 13 -18 0 -25 -5 -25 -19 0 -11 -5 -23 -10 -26 -12 -8 -2 -77 12
-86 8 -5 -41 -29 -59 -29 -2 0 -1 16 3 35 5 27 2 41 -12 56 -15 17 -16 23 -5
41 14 22 13 23 -31 49 -10 5 -18 19 -18 29 0 13 -7 20 -20 20 -13 0 -20 7 -20
20 0 11 -4 20 -10 20 -5 0 -10 -9 -10 -20 0 -14 -7 -20 -24 -20 -19 0 -26 7
-31 29 -7 32 -38 47 -55 26 -8 -10 -1 -23 29 -54 22 -22 44 -41 49 -41 5 0 12
-7 16 -15 3 -9 18 -15 40 -15 21 0 36 -6 40 -15 9 -25 -6 -135 -18 -135 -24 0
-33 22 -29 64 5 39 3 44 -19 49 -14 4 -37 18 -52 32 -15 14 -39 25 -53 25 -22
0 -25 -3 -21 -30 4 -24 1 -30 -14 -30 -10 0 -21 -6 -24 -14 -10 -25 -36 -28
-56 -6 -24 26 -48 26 -48 0 0 -28 -24 -25 -56 7 -22 21 -26 35 -26 77 0 52
-22 106 -44 106 -6 0 -17 -7 -24 -15 -7 -8 -18 -15 -25 -15 -7 0 -18 7 -25 15
-7 8 -23 15 -35 15 -13 0 -25 6 -28 14 -8 20 -61 30 -86 16 -30 -15 -26 -30 8
-30 19 0 39 -11 62 -35 28 -29 41 -35 77 -35 40 0 42 -1 42 -30 0 -33 -14 -38
-44 -15 -11 8 -28 15 -38 15 -25 0 -24 -45 2 -63 26 -18 32 -70 8 -75 -10 -2
-19 5 -23 20 -4 13 -20 40 -36 60 -16 20 -29 47 -29 60 -1 13 -14 39 -31 58
-24 28 -32 33 -47 24 -10 -6 -18 -26 -20 -48 l-3 -36 -50 0 c-47 0 -50 2 -47
23 2 14 11 23 26 25 29 4 30 41 1 66 -23 19 -24 18 -49 -26 -7 -11 -6 -19 1
-24 8 -4 7 -9 -2 -15 -25 -16 -58 -10 -70 13 -11 20 -13 20 -24 5 -13 -19 -35
-23 -35 -7 0 6 -6 10 -14 10 -9 0 -17 15 -21 40 -7 43 -10 45 -49 30 -35 -13
-61 -3 -44 17 7 8 22 19 35 24 13 5 23 17 23 28 0 26 -31 36 -47 15 -9 -12
-25 -17 -51 -16 -28 1 -45 -5 -64 -23 -32 -30 -32 -30 -58 -8 -27 23 -25 33 6
33 14 0 32 7 40 15 13 13 12 17 -6 35 l-21 21 -33 -21 c-19 -11 -41 -17 -50
-14 -12 5 -16 0 -16 -20 0 -19 -5 -26 -20 -26 -15 0 -20 7 -20 26 0 22 -4 25
-22 21 -12 -3 -30 -1 -41 5 -11 6 -66 11 -121 11 l-101 0 -9 -31 c-9 -33 -47
-49 -86 -37 -31 10 -23 50 10 50 19 0 25 5 25 22 0 12 3 24 6 27 10 10 279 15
303 6 19 -7 35 -4 67 13 69 37 63 49 -19 43 -43 -4 -73 -2 -77 4 -8 13 -52 13
-60 0 -3 -5 -17 -10 -31 -10 -20 0 -24 5 -24 30 0 27 -3 30 -30 30 -25 0 -30
-4 -30 -25 0 -28 -37 -52 -64 -42 -28 11 -19 45 14 52 39 9 38 30 -2 44 -26 9
-35 9 -43 -2 -11 -16 -85 -21 -85 -7 0 15 -19 12 -36 -5 -12 -12 -12 -18 -2
-35 15 -23 24 -25 31 -6 7 19 53 26 74 11 22 -16 10 -45 -19 -46 -50 -3 -124
4 -140 12 -10 6 -18 17 -18 25 0 29 -70 89 -104 90 -17 0 -48 4 -68 8 -32 7
-38 5 -38 -8 0 -9 -8 -16 -19 -16 -22 0 -19 31 5 51 26 21 16 39 -22 39 -42 0
-64 -19 -64 -54 0 -22 -4 -26 -30 -26 -17 0 -39 -5 -49 -12 -23 -14 -94 11
-99 36 -4 21 45 33 70 17 16 -10 26 -9 53 3 38 19 47 35 38 77 -4 23 -10 29
-26 27 -13 -2 -23 -13 -27 -28 -6 -24 -9 -25 -98 -28 -87 -3 -92 -2 -92 18 0
11 6 20 12 20 7 0 3 9 -9 21 -20 20 -22 21 -57 4 -29 -14 -39 -15 -51 -5 -21
18 -19 40 4 40 11 0 26 9 34 20 8 11 17 17 20 13 4 -3 7 5 7 19 0 30 -28 58
-58 58 -15 0 -22 -6 -22 -18 0 -10 -3 -22 -7 -26 -5 -4 -8 -18 -8 -29 0 -17
-7 -23 -28 -25 -28 -3 -28 -3 -25 44 3 41 6 48 25 49 13 1 25 4 28 7 12 12 -9
39 -34 44 -14 3 -34 9 -43 15 -10 5 -27 9 -37 9 -29 0 -71 21 -71 36 0 15 29
28 55 25 16 -3 17 -1 6 13 -7 9 -24 16 -37 16 -13 0 -28 9 -34 20 -11 21 -40
28 -40 10 0 -5 6 -10 13 -10 22 0 -17 -20 -40 -20 -16 0 -23 6 -23 20 0 13 7
20 20 20 11 0 20 5 20 11 0 22 -22 49 -40 49 -12 0 -20 8 -22 22 -4 30 -38 37
-38 9 0 -17 -6 -21 -31 -21 -24 0 -32 6 -40 30 -13 37 -26 38 -61 5 l-27 -25
-53 52 c-30 29 -47 53 -40 56 17 5 15 19 -5 26 -10 4 -24 -2 -37 -16 -13 -14
-16 -23 -8 -26 26 -8 10 -32 -28 -42 -39 -10 -55 -30 -25 -30 8 0 15 -7 15
-15 0 -8 -6 -15 -14 -15 -21 0 -83 38 -90 55 -3 8 -12 15 -21 15 -19 0 -55 35
-55 54 0 21 33 30 46 12 14 -19 63 -38 81 -32 11 4 11 10 3 26 -7 14 -21 20
-45 20 -39 0 -51 12 -32 32 12 11 12 16 0 27 -12 11 -18 10 -34 -5 -18 -17
-20 -16 -42 3 -12 12 -48 35 -79 52 -36 20 -58 40 -60 53 -3 19 -4 19 -26 -5z
m-252 -277 c0 -23 -5 -30 -19 -30 -23 0 -35 28 -20 46 20 24 39 16 39 -16z
m148 7 c2 -10 -3 -17 -11 -17 -16 0 -30 24 -19 34 10 10 27 1 30 -17z m859
-63 c8 -20 -9 -36 -30 -28 -20 7 -22 30 -4 37 21 9 27 7 34 -9z m-437 -64 c0
-5 -6 -10 -13 -10 -7 0 -18 -9 -25 -20 -7 -12 -23 -20 -38 -20 -21 0 -25 4
-22 23 2 15 10 22 25 22 12 0 25 4 29 8 11 11 44 8 44 -3z m438 -48 c4 -27
-22 -39 -43 -22 -20 17 -19 38 3 43 27 7 37 2 40 -21z m-224 -4 c13 -50 9 -58
-24 -47 -32 12 -36 20 -20 50 14 26 36 24 44 -3z m9912 -39 c15 -16 25 -32 21
-35 -3 -4 -27 -1 -52 5 -31 8 -51 8 -65 1 -24 -13 -60 -13 -60 0 0 6 4 10 9
10 5 0 23 13 40 29 37 34 67 32 107 -10z m-9626 -32 c0 -22 -28 -20 -43 5 -8
12 -7 21 3 33 13 16 15 16 27 -1 7 -10 13 -26 13 -37z m9767 27 c7 -18 -11
-39 -25 -30 -12 7 -4 46 9 46 6 0 12 -7 16 -16z m-309 -61 c3 -20 -1 -23 -27
-23 -27 0 -31 4 -31 26 0 22 4 25 28 22 19 -2 28 -9 30 -25z m-9334 1 c8 -21
10 -20 -46 -26 -45 -5 -48 -4 -48 18 0 22 4 24 44 24 31 0 46 -5 50 -16z
m9476 -40 c13 -34 13 -34 -9 -34 -19 0 -31 18 -31 46 0 24 30 15 40 -12z
m-9472 -32 c2 -7 -6 -12 -17 -12 -21 0 -27 11 -14 24 9 9 26 2 31 -12z m-498
-17 c-7 -8 -21 -15 -31 -15 -11 0 -19 7 -19 15 0 10 10 15 31 15 27 0 30 -2
19 -15z m9788 3 c18 -18 15 -28 -8 -28 -13 0 -20 7 -20 20 0 23 10 26 28 8z
m-340 -20 c19 -19 15 -48 -7 -48 -21 0 -33 22 -25 45 7 18 16 19 32 3z m-75
-36 c39 -41 36 -56 -10 -47 -45 8 -63 21 -63 45 0 39 36 41 73 2z m277 -15 c0
-14 -19 -37 -31 -37 -10 0 -20 30 -13 41 8 14 44 11 44 -4z m-456 -13 c9 -3
16 -10 16 -16 0 -14 -53 -5 -58 10 -4 13 16 16 42 6z m-8884 -23 c0 -11 10
-27 22 -35 17 -12 20 -18 10 -28 -9 -9 -15 -8 -27 8 -8 10 -15 27 -15 36 0 9
-8 22 -17 27 -16 9 -16 10 5 11 15 0 22 -6 22 -19z m9576 4 c5 -13 -16 -45
-30 -45 -8 0 -7 45 1 53 11 11 23 8 29 -8z m-346 -31 c0 -13 -4 -24 -10 -24
-13 0 -32 38 -25 50 10 17 35 -2 35 -26z m-9080 -34 c0 -15 -7 -20 -25 -20
-18 0 -25 5 -25 20 0 15 7 20 25 20 18 0 25 -5 25 -20z m80 0 c0 -5 -4 -10
-10 -10 -5 0 -10 5 -10 10 0 6 5 10 10 10 6 0 10 -4 10 -10z m104 0 c44 -16
33 -40 -19 -40 -25 0 -45 5 -45 10 0 6 5 10 10 10 6 0 10 7 10 15 0 18 9 19
44 5z m9136 -50 c0 -5 -4 -10 -10 -10 -5 0 -10 5 -10 10 0 6 5 10 10 10 6 0
10 -4 10 -10z m-560 -35 c0 -17 -2 -18 -24 -9 -23 9 -20 24 4 24 11 0 20 -7
20 -15z m-8159 -5 c12 0 18 -11 21 -36 4 -34 3 -35 -21 -28 -14 4 -38 8 -53 8
-37 1 -43 11 -24 42 13 19 23 24 39 20 12 -3 29 -6 38 -6z m143 -25 c3 -8 13
-15 23 -15 10 0 27 -7 37 -15 34 -25 -12 -49 -56 -30 -19 8 -25 -9 -8 -20 6
-3 10 -24 10 -46 0 -38 -1 -39 -35 -39 -27 0 -35 4 -35 18 0 10 6 24 13 31 10
10 8 16 -10 31 -32 25 -28 51 10 78 38 26 43 27 51 7z m7611 -75 c3 -5 -3 -10
-14 -10 -12 0 -21 5 -21 10 0 6 6 10 14 10 8 0 18 -4 21 -10z m-8040 -21 c4
-6 5 -12 2 -15 -7 -7 -37 7 -37 17 0 13 27 11 35 -2z m255 -14 c0 -8 -7 -15
-15 -15 -8 0 -15 7 -15 15 0 8 7 15 15 15 8 0 15 -7 15 -15z m388 -11 c27 -8
29 -40 3 -49 -10 -3 -30 -1 -45 5 -15 5 -41 10 -57 10 -48 0 -37 28 14 33 23
2 47 4 52 5 6 1 20 -1 33 -4z m7090 -22 c3 -17 -2 -22 -17 -22 -22 0 -25 8
-15 35 9 22 28 14 32 -13z m362 18 c0 -5 -4 -10 -10 -10 -5 0 -10 5 -10 10 0
6 5 10 10 10 6 0 10 -4 10 -10z m-540 -16 c0 -35 -62 -59 -74 -28 -10 26 -7
32 17 37 45 9 57 7 57 -9z m-308 -36 c3 -8 9 -8 19 -2 8 5 49 9 91 9 69 0 78
-2 78 -18 0 -10 -5 -15 -10 -12 -11 7 -46 -23 -37 -32 6 -6 -17 -33 -28 -33
-4 0 -13 7 -21 15 -9 8 -22 15 -29 15 -7 0 -20 -7 -29 -15 -8 -8 -17 -15 -20
-15 -3 0 -6 7 -6 15 0 8 -7 15 -15 15 -8 0 -15 6 -15 13 0 6 -3 22 -6 35 -5
16 -2 22 9 22 8 0 17 -5 19 -12z m698 2 c0 -11 -42 -31 -49 -24 -2 2 2 10 9
19 14 17 40 20 40 5z m-7467 -31 c23 -26 25 -33 13 -45 -19 -18 -52 -18 -60 1
-3 9 -18 15 -35 15 -16 0 -37 7 -46 17 -16 15 -16 17 0 26 9 5 28 7 41 4 14
-2 27 0 30 4 10 17 30 9 57 -22z m7105 -2 c2 -11 -3 -17 -16 -17 -15 0 -19 5
-15 20 6 24 26 21 31 -3z m-6728 -7 c0 -5 -4 -10 -10 -10 -5 0 -10 5 -10 10 0
6 5 10 10 10 6 0 10 -4 10 -10z m7020 -10 c0 -5 -9 -10 -21 -10 -11 0 -17 5
-14 10 3 6 13 10 21 10 8 0 14 -4 14 -10z m-6820 -30 c0 -11 -4 -20 -10 -20
-5 0 -10 9 -10 20 0 11 5 20 10 20 6 0 10 -9 10 -20z m153 -40 c12 -11 -1 -50
-17 -50 -26 0 -49 26 -41 49 5 17 12 20 28 15 12 -3 26 -10 30 -14z m6357 -10
c0 -5 -4 -10 -10 -10 -5 0 -10 5 -10 10 0 6 5 10 10 10 6 0 10 -4 10 -10z
m-7145 -19 c-3 -6 -14 -10 -23 -10 -15 1 -15 2 1 6 9 2 17 9 17 15 0 6 3 9 6
5 3 -3 3 -10 -1 -16z m393 -56 c16 -35 15 -37 -8 -25 -11 6 -20 20 -20 30 0
28 15 25 28 -5z m575 16 c17 -2 5 -39 -15 -44 -26 -7 -48 8 -48 35 0 15 6 18
28 14 15 -2 30 -5 35 -5z m5647 -18 c0 -16 -6 -23 -20 -23 -14 0 -20 7 -20 23
0 16 6 23 20 23 14 0 20 -7 20 -23z m180 -4 c0 -16 -27 -39 -44 -39 -25 0 -19
39 7 49 24 9 37 6 37 -10z m-6240 -29 c0 -11 -7 -20 -15 -20 -8 0 -15 2 -15 4
0 2 -3 11 -6 20 -4 12 0 16 15 16 14 0 21 -6 21 -20z m337 -26 c-3 -3 -12 -4
-19 -1 -8 3 -5 6 6 6 11 1 17 -2 13 -5z m5953 -24 c0 -15 -7 -20 -25 -20 -29
0 -35 26 -7 33 30 8 32 7 32 -13z m500 5 c0 -8 -9 -15 -20 -15 -20 0 -26 11
-13 23 12 13 33 7 33 -8z m-6405 -15 c0 -24 -30 -24 -32 0 -1 15 3 20 15 18 9
-2 17 -10 17 -18z m2959 -46 c10 -26 7 -34 -13 -34 -14 0 -17 6 -13 25 5 28
17 33 26 9z m411 -24 c3 -19 13 -41 22 -47 15 -11 13 -13 -14 -13 -45 0 -63 9
-63 33 0 18 39 72 46 64 2 -1 6 -18 9 -37z m-297 -4 c5 -23 -25 -20 -38 3 -15
28 -13 31 13 22 12 -5 23 -16 25 -25z m-2868 -11 c0 -8 -9 -15 -20 -15 -11 0
-20 7 -20 15 0 8 9 15 20 15 11 0 20 -7 20 -15z m2195 6 c7 -12 -33 -41 -57
-41 -21 0 -32 16 -24 35 6 17 71 21 81 6z m468 -11 c6 -23 -10 -37 -25 -22
-12 12 -4 42 11 42 5 0 11 -9 14 -20z m2967 0 c0 -21 -37 -51 -54 -44 -15 6
-15 9 5 30 23 25 49 32 49 14z m-5198 -15 c10 -13 0 -25 -23 -25 -12 0 -19 7
-19 19 0 20 29 24 42 6z m1558 6 c0 -5 14 -23 30 -39 36 -36 37 -42 9 -42 -12
0 -23 8 -26 20 -3 11 -14 20 -24 20 -20 0 -23 8 -13 34 7 17 24 22 24 7z
m1030 -9 c0 -16 -32 -12 -37 5 -3 7 4 11 16 10 12 -1 21 -7 21 -15z m1406 -17
c-6 -17 -42 -20 -51 -5 -3 5 7 16 22 24 29 15 40 7 29 -19z m114 6 c0 -25 -14
-41 -36 -41 -25 0 -29 7 -16 26 12 19 52 30 52 15z m-2080 -11 c0 -5 -4 -10
-10 -10 -5 0 -10 5 -10 10 0 6 5 10 10 10 6 0 10 -4 10 -10z m278 -28 c2 -7
-4 -15 -13 -18 -19 -8 -51 19 -41 35 8 12 48 -1 54 -17z m893 7 c20 -20 20
-22 3 -40 -37 -41 -63 -19 -48 39 8 27 18 28 45 1z m-3111 5 c0 -3 -6 -12 -14
-20 -16 -15 -32 -2 -21 16 7 11 35 14 35 4z m900 -4 c0 -5 -4 -10 -10 -10 -5
0 -10 5 -10 10 0 6 5 10 10 10 6 0 10 -4 10 -10z m120 -4 c0 -19 -14 -28 -34
-20 -13 5 -14 9 -5 20 15 18 39 18 39 0z m2210 -6 c0 -13 -5 -18 -15 -14 -8 4
-15 12 -15 20 0 8 7 14 15 14 8 0 15 -9 15 -20z m144 4 c10 -26 7 -34 -13 -34
-23 0 -35 15 -27 35 7 20 32 19 40 -1z m-828 -21 c-10 -10 -19 5 -10 18 6 11
8 11 12 0 2 -7 1 -15 -2 -18z m-216 -8 c16 -19 4 -35 -25 -35 -27 0 -39 14
-31 35 7 19 40 19 56 0z m349 4 c17 -6 31 -15 31 -20 0 -5 9 -9 21 -9 12 0 19
-5 16 -12 -4 -14 -120 -18 -133 -5 -8 8 15 57 26 57 4 0 21 -5 39 -11z m-1569
-19 c0 -11 -7 -20 -15 -20 -15 0 -21 21 -8 33 12 13 23 7 23 -13z m2650 -5 c0
-20 -5 -25 -25 -25 -18 0 -25 5 -25 18 0 10 3 22 7 25 3 4 15 7 25 7 13 0 18
-7 18 -25z m-2130 5 c0 -5 -7 -10 -15 -10 -8 0 -15 5 -15 10 0 6 7 10 15 10 8
0 15 -4 15 -10z m1228 -7 c-5 -26 -38 -29 -38 -4 0 15 6 21 21 21 14 0 19 -5
17 -17z m450 -10 c-3 -13 -12 -17 -33 -15 -37 4 -44 10 -25 22 26 17 62 12 58
-7z m-1218 -3 c0 -5 -5 -10 -11 -10 -5 0 -7 5 -4 10 3 6 8 10 11 10 2 0 4 -4
4 -10z m2008 -23 c2 -10 -3 -17 -12 -17 -10 0 -16 9 -16 21 0 24 23 21 28 -4z
m-2128 -2 c0 -8 -4 -15 -10 -15 -5 0 -10 7 -10 15 0 8 5 15 10 15 6 0 10 -7
10 -15z m258 -12 c2 -8 -5 -13 -17 -13 -21 0 -35 13 -24 24 10 10 36 3 41 -11z
m1427 -3 c3 -11 11 -20 16 -20 5 0 9 -7 9 -15 0 -36 -51 -9 -62 33 -5 17 -2
22 12 22 10 0 22 -9 25 -20z m-1165 -5 c0 -8 -7 -15 -15 -15 -8 0 -15 7 -15
15 0 8 7 15 15 15 8 0 15 -7 15 -15z m1850 -6 c0 -11 -4 -17 -10 -14 -5 3 -10
13 -10 21 0 8 5 14 10 14 6 0 10 -9 10 -21z m-3040 -4 c10 -13 9 -15 -8 -15
-22 0 -36 13 -25 24 10 10 20 7 33 -9z m1490 -5 c0 -5 -4 -10 -9 -10 -6 0 -13
5 -16 10 -3 6 1 10 9 10 9 0 16 -4 16 -10z m610 2 c0 -13 -12 -22 -22 -16 -10
6 -1 24 13 24 5 0 9 -4 9 -8z m410 -6 c0 -20 -14 -33 -31 -29 -28 8 -24 33 6
33 14 0 25 -2 25 -4z m-2204 -53 c-11 -11 -17 4 -9 23 7 18 8 18 11 1 2 -10 1
-21 -2 -24z m2814 13 c0 -2 -9 -6 -20 -9 -11 -3 -20 -1 -20 4 0 5 9 9 20 9 11
0 20 -2 20 -4z m-2933 -12 c-3 -3 -12 -4 -19 -1 -8 3 -5 6 6 6 11 1 17 -2 13
-5z m3013 -14 c0 -5 -4 -10 -10 -10 -5 0 -10 5 -10 10 0 6 5 10 10 10 6 0 10
-4 10 -10z m-590 -30 c0 -5 -7 -10 -15 -10 -8 0 -15 5 -15 10 0 6 7 10 15 10
8 0 15 -4 15 -10z m-2626 -30 c-6 -6 -15 -6 -24 0 -13 9 -13 11 0 20 18 11 39
-5 24 -20z m6500 -2290 c7 -7 9 -127 7 -383 -4 -449 -4 -365 -1 -652 1 -132 1
-293 1 -357 l-1 -118 -440 0 c-418 0 -441 1 -459 19 -15 15 -17 27 -12 57 3
22 4 350 1 729 -4 615 -3 692 11 705 13 13 75 15 448 13 293 -1 437 -5 445
-13z m-9773 -690 c189 -18 455 -70 543 -106 32 -13 69 -24 80 -24 12 -1 39 -9
61 -20 22 -11 44 -19 49 -20 18 0 273 -130 359 -182 112 -68 391 -276 447
-333 41 -42 43 -46 30 -69 -7 -14 -99 -107 -204 -209 -321 -308 -398 -377
-424 -377 -14 0 -46 19 -75 44 -125 106 -510 336 -563 336 -12 0 -44 9 -70 21
-126 54 -396 76 -597 49 -166 -22 -354 -104 -511 -220 -134 -99 -242 -246
-304 -413 -25 -67 -27 -83 -27 -238 l0 -166 53 -107 c47 -94 64 -117 155 -209
91 -91 243 -217 262 -217 4 0 62 -27 129 -59 112 -55 155 -71 351 -132 165
-51 224 -70 295 -93 306 -102 566 -227 760 -367 86 -62 216 -186 326 -310 179
-201 344 -484 344 -589 0 -15 7 -36 17 -45 17 -17 18 -17 118 7 22 5 83 18
135 28 52 10 122 25 155 33 155 38 391 70 370 50 -12 -11 -163 -47 -285 -68
-47 -8 -103 -19 -125 -25 -22 -5 -65 -14 -95 -20 -30 -6 -73 -16 -95 -21 -22
-6 -65 -16 -95 -23 -47 -11 -55 -16 -58 -38 -2 -14 7 -49 18 -79 58 -145 58
-783 1 -959 -10 -30 -24 -77 -30 -105 -7 -27 -28 -82 -47 -122 -19 -40 -34
-78 -34 -86 0 -26 -121 -220 -226 -362 -150 -203 -421 -423 -642 -522 -92 -41
-226 -93 -240 -93 -8 0 -51 -11 -96 -24 -168 -49 -244 -57 -527 -57 -145 0
-286 4 -314 10 -293 58 -438 102 -589 177 -294 148 -468 258 -636 404 -36 31
-93 78 -128 104 -34 26 -117 99 -185 163 -67 63 -149 135 -182 160 -33 25 -60
50 -60 55 0 10 90 59 280 151 133 64 417 212 518 269 84 48 117 55 117 25 0
-8 48 -61 108 -118 199 -193 500 -369 722 -423 201 -49 504 -59 610 -21 25 9
65 20 90 26 50 11 199 84 263 128 71 49 194 175 240 247 56 87 81 136 115 227
26 70 27 78 26 277 -1 216 -11 282 -55 358 -10 18 -19 39 -19 45 0 23 -53 112
-94 158 -22 25 -58 66 -79 92 -45 56 -215 197 -312 259 -59 38 -145 79 -320
152 -40 17 -203 65 -445 131 -52 15 -108 30 -125 35 -151 42 -402 154 -542
242 -341 212 -601 517 -723 846 -71 193 -101 350 -108 563 -4 161 5 266 39
429 27 132 100 331 151 415 17 27 40 66 51 85 10 19 31 51 46 70 14 19 35 49
46 66 22 34 165 186 230 244 102 91 209 167 329 233 149 82 361 172 456 194
36 8 90 21 120 29 142 37 467 54 671 34z m6517 -25 c10 -4 11 -52 6 -237 -4
-128 -7 -981 -7 -1895 0 -1329 3 -1665 13 -1678 9 -11 32 -15 89 -15 51 0 96
-7 134 -20 31 -11 81 -20 112 -20 30 0 101 -9 158 -20 227 -43 286 -53 367
-60 47 -5 99 -13 115 -18 17 -5 64 -15 105 -22 41 -7 98 -18 127 -26 28 -8 62
-14 75 -14 22 0 174 -35 283 -64 28 -8 68 -17 90 -21 79 -13 418 -104 500
-135 28 -10 65 -24 83 -30 35 -14 44 -40 12 -40 -11 0 -37 7 -58 16 -40 17
-231 71 -297 84 -22 4 -76 17 -120 28 -44 10 -118 27 -165 37 -47 10 -114 26
-150 36 -72 20 -231 54 -300 64 -25 4 -121 22 -215 40 -93 18 -180 33 -193 33
-12 0 -53 7 -90 16 -80 18 -268 46 -372 57 -87 8 -202 24 -247 34 -25 6 -33 3
-41 -12 -7 -12 -11 -307 -11 -824 -1 -722 0 -808 14 -819 13 -10 136 -14 588
-17 315 -2 578 -6 585 -8 10 -4 12 -98 10 -447 l-3 -443 -1019 -7 c-794 -6
-1025 -5 -1044 5 -23 12 -24 15 -27 152 -2 77 -4 680 -4 1339 -1 872 -5 1203
-13 1213 -9 11 -6 18 12 30 21 15 22 21 16 84 -7 78 -8 1432 -1 2734 3 495 5
900 5 900 257 0 869 -7 878 -10z m3249 -1207 c4 -7 9 -771 10 -1698 0 -927 4
-1737 6 -1800 13 -277 16 -882 5 -1095 -6 -126 -11 -316 -12 -421 -1 -146 -4
-195 -15 -207 -12 -15 -56 -17 -446 -17 -367 0 -434 2 -445 15 -9 11 -10 587
-6 2612 4 1429 6 2603 6 2610 0 17 885 18 897 1z m-4572 -2479 c285 -10 375
-19 375 -38 0 -17 -57 -19 -240 -10 -235 12 -1117 10 -1275 -2 -66 -5 -235
-16 -375 -24 -140 -9 -277 -20 -305 -25 -27 -5 -108 -14 -180 -20 -154 -13
-297 -27 -380 -39 -33 -5 -100 -14 -150 -20 -49 -6 -97 -14 -105 -17 -8 -3
-51 -10 -95 -14 -44 -5 -99 -12 -122 -16 -35 -5 -43 -4 -43 9 0 23 7 25 121
42 57 8 120 19 139 25 19 5 49 10 66 10 18 0 76 9 130 19 55 11 149 25 209 30
273 26 455 46 565 61 90 13 601 40 795 43 238 3 534 -2 870 -14z m-4845 -654
c0 -8 -52 -26 -58 -20 -3 2 6 9 19 14 28 11 39 13 39 6z m-110 -35 c0 -11 -26
-18 -87 -22 -47 -4 -47 7 0 21 43 13 87 13 87 1z m-200 -50 c0 -5 -12 -12 -27
-16 -16 -3 -49 -12 -75 -20 -50 -15 -96 -19 -84 -7 7 7 69 27 136 42 49 12 50
12 50 1z m-220 -69 c0 -10 -13 -15 -67 -26 -19 -4 -33 -2 -33 3 0 9 52 29 83
31 9 1 17 -3 17 -8z m-162 -49 c2 -8 -9 -12 -32 -12 -41 0 -46 7 -13 20 26 10
39 8 45 -8z m-123 -41 c-14 -13 -85 -31 -85 -21 0 5 12 13 28 18 35 13 69 15
57 3z m-247 -87 c-8 -9 -26 -14 -39 -12 l-24 5 25 11 c14 6 32 11 40 11 12 1
12 -2 -2 -15z m-113 -51 c-22 -16 -59 -18 -50 -2 9 14 48 28 59 21 5 -3 1 -11
-9 -19z m-200 -73 c-3 -5 -13 -10 -21 -10 -8 0 -14 5 -14 10 0 6 9 10 21 10
11 0 17 -4 14 -10z m11270 0 c3 -5 -3 -10 -14 -10 -11 0 -23 5 -26 10 -3 6 3
10 14 10 11 0 23 -4 26 -10z m110 -51 c5 -5 -5 -4 -23 2 -17 6 -32 13 -32 16
0 7 43 -8 55 -18z m-11508 5 c-3 -3 -12 -4 -19 -1 -8 3 -5 6 6 6 11 1 17 -2
13 -5z m-72 -34 c-3 -5 -16 -10 -28 -10 -18 0 -19 2 -7 10 20 13 43 13 35 0z
m11705 -22 c30 -17 50 -33 43 -35 -11 -4 -133 53 -133 62 0 14 41 1 90 -27z
m128 -73 c-8 -8 -48 8 -42 16 3 5 14 4 25 -2 12 -6 19 -12 17 -14z m87 -40
c22 -13 36 -25 32 -25 -15 0 -75 28 -81 39 -11 18 6 13 49 -14z m126 -73 c-7
-2 -23 6 -35 18 l-21 22 35 -18 c21 -10 30 -19 21 -22z m129 -52 c13 -9 13
-10 0 -10 -8 0 -22 5 -30 10 -13 9 -13 10 0 10 8 0 22 -5 30 -10z m130 -70
c13 -8 13 -10 -2 -10 -9 0 -20 5 -23 10 -8 13 5 13 25 0z m-7147 -131 c114
-38 225 -107 278 -174 72 -90 125 -205 144 -307 19 -111 19 -129 -5 -224 -25
-98 -82 -194 -160 -272 -100 -101 -237 -165 -390 -182 -82 -9 -97 -8 -187 15
-53 14 -116 36 -139 50 -156 92 -255 232 -297 421 -13 59 -14 88 -5 165 13
116 26 156 86 256 39 64 61 89 128 139 45 34 103 69 130 79 27 9 58 21 69 27
20 11 132 24 228 27 35 0 82 -7 120 -20z m7474 -45 c-3 -3 -12 -4 -19 -1 -8 3
-5 6 6 6 11 1 17 -2 13 -5z"/>
<path d="M15568 18195 c-3 -3 -3 -17 0 -30 4 -21 8 -24 31 -19 40 10 45 20 20
38 -24 16 -42 20 -51 11z"/>
<path d="M14896 18141 c-4 -5 -3 -16 0 -25 5 -14 8 -14 21 -1 8 8 11 19 8 25
-8 12 -22 13 -29 1z"/>
<path d="M15507 18121 c3 -12 10 -21 15 -21 13 0 6 32 -9 37 -7 3 -9 -3 -6
-16z"/>
<path d="M15692 18118 c2 -17 11 -24 31 -26 30 -4 35 9 11 32 -23 24 -46 20
-42 -6z"/>
<path d="M15340 18095 c0 -2 13 -18 29 -34 16 -16 26 -32 23 -35 -3 -3 2 -6
11 -6 25 0 20 28 -9 55 -24 22 -54 33 -54 20z"/>
<path d="M15250 18080 c0 -5 -7 -10 -15 -10 -8 0 -15 -9 -15 -20 0 -25 18 -26
36 -2 16 20 18 42 4 42 -5 0 -10 -4 -10 -10z"/>
<path d="M14550 18070 c0 -5 7 -10 15 -10 8 0 15 5 15 10 0 6 -7 10 -15 10 -8
0 -15 -4 -15 -10z"/>
<path d="M14910 18070 c0 -5 5 -10 10 -10 6 0 10 5 10 10 0 6 -4 10 -10 10 -5
0 -10 -4 -10 -10z"/>
<path d="M15800 18055 c0 -8 7 -15 16 -15 14 0 14 3 4 15 -7 8 -14 15 -16 15
-2 0 -4 -7 -4 -15z"/>
<path d="M6030 17940 c-19 -12 -7 -22 21 -18 19 2 20 5 8 15 -9 7 -20 9 -29 3z"/>
<path d="M14835 17940 c-10 -16 24 -62 43 -58 11 2 17 13 17 33 0 25 -4 31
-27 33 -14 2 -29 -2 -33 -8z"/>
<path d="M6142 17845 c-11 -12 -10 -15 3 -15 8 0 15 7 15 15 0 18 -2 18 -18 0z"/>
<path d="M6030 17830 c-13 -9 -13 -12 2 -21 13 -7 16 -17 12 -39 -6 -28 -6
-29 20 -17 32 15 36 61 7 77 -24 12 -22 12 -41 0z"/>
<path d="M6380 17756 c-16 -21 -9 -57 15 -70 10 -6 25 -17 33 -23 19 -18 52
-16 52 2 0 8 -7 15 -16 15 -23 0 -43 29 -44 63 0 30 -20 36 -40 13z"/>
<path d="M14295 17750 c-10 -16 4 -30 31 -30 27 0 33 24 8 34 -22 8 -32 8 -39
-4z"/>
<path d="M7177 17723 c-13 -12 -7 -33 8 -33 8 0 15 9 15 20 0 20 -11 26 -23
13z"/>
<path d="M14143 17715 c-25 -11 -33 -20 -33 -40 0 -19 5 -25 23 -25 31 1 70
33 66 55 -5 25 -18 27 -56 10z"/>
<path d="M6096 17682 c-15 -14 -4 -32 19 -32 30 0 34 25 6 33 -11 3 -22 2 -25
-1z"/>
<path d="M13510 17646 c0 -14 5 -26 10 -26 6 0 10 7 10 15 0 8 0 18 1 22 0 4
-4 9 -10 11 -6 2 -11 -8 -11 -22z"/>
<path d="M6992 17633 c2 -10 14 -19 26 -21 19 -3 23 1 20 15 -2 10 -14 19 -26
21 -19 3 -23 -1 -20 -15z"/>
<path d="M14160 17628 c0 -41 15 -52 39 -32 32 28 28 54 -9 54 -24 0 -30 -4
-30 -22z"/>
<path d="M6736 17631 c-4 -7 -5 -15 -2 -18 9 -9 19 4 14 18 -4 11 -6 11 -12 0z"/>
<path d="M13306 17631 c-4 -7 -5 -15 -2 -18 9 -9 19 4 14 18 -4 11 -6 11 -12
0z"/>
<path d="M13950 17592 c0 -7 -4 -11 -8 -8 -13 8 -42 -48 -33 -63 13 -20 44 -9
61 21 13 25 13 29 -3 45 -11 12 -17 13 -17 5z"/>
<path d="M7055 17580 c-16 -25 39 -72 74 -63 22 6 29 37 10 49 -20 12 -79 22
-84 14z"/>
<path d="M13404 17476 c-6 -7 -15 -22 -18 -34 -6 -18 -3 -22 13 -22 12 0 21 6
21 14 0 8 5 16 11 18 10 3 2 38 -10 38 -3 -1 -11 -7 -17 -14z"/>
<path d="M13841 17476 c-9 -11 -9 -16 0 -21 10 -7 28 10 29 28 0 12 -17 8 -29
-7z"/>
<path d="M7490 17440 c0 -5 5 -10 10 -10 6 0 10 5 10 10 0 6 -4 10 -10 10 -5
0 -10 -4 -10 -10z"/>
<path d="M7338 17372 c-65 -30 -76 -52 -25 -52 26 0 37 6 47 25 13 25 44 34
54 16 7 -10 46 -3 46 8 0 14 -25 31 -44 30 -12 -1 -47 -13 -78 -27z"/>
<path d="M7841 17384 c0 -11 3 -14 6 -6 3 7 2 16 -1 19 -3 4 -6 -2 -5 -13z"/>
<path d="M7477 17333 c-15 -14 -6 -44 15 -52 24 -9 67 14 68 35 0 20 -67 34
-83 17z"/>
<path d="M13066 17314 c-8 -22 -8 -24 8 -24 8 0 16 -4 18 -10 7 -20 30 8 23
29 -7 25 -40 28 -49 5z"/>
<path d="M12960 17285 c0 -9 9 -15 25 -15 16 0 25 6 25 15 0 9 -9 15 -25 15
-16 0 -25 -6 -25 -15z"/>
<path d="M7842 17263 c2 -12 14 -19 37 -21 28 -3 33 -1 27 13 -3 9 -6 19 -6
21 0 2 -14 4 -31 4 -24 0 -30 -4 -27 -17z"/>
<path d="M11630 17260 c0 -5 7 -10 16 -10 8 0 12 5 9 10 -3 6 -10 10 -16 10
-5 0 -9 -4 -9 -10z"/>
<path d="M12430 17253 c0 -34 11 -53 31 -53 25 0 24 9 -6 45 -22 28 -24 28
-25 8z"/>
<path d="M7755 17246 c-28 -21 -12 -46 30 -46 27 0 35 4 35 18 0 20 -18 42
-35 42 -6 0 -20 -6 -30 -14z"/>
<path d="M7574 17184 c3 -9 6 -18 6 -20 0 -2 5 -4 10 -4 6 0 10 9 10 20 0 12
-7 20 -16 20 -11 0 -14 -5 -10 -16z"/>
<path d="M11790 17171 c0 -24 13 -33 34 -25 27 10 20 44 -9 44 -18 0 -25 -5
-25 -19z"/>
<path d="M10471 17164 c0 -11 3 -14 6 -6 3 7 2 16 -1 19 -3 4 -6 -2 -5 -13z"/>
<path d="M12410 17161 c0 -5 9 -11 20 -14 24 -6 27 8 4 17 -21 8 -24 8 -24 -3z"/>
<path d="M11257 17133 c-12 -11 -8 -33 6 -33 6 0 19 5 27 10 13 9 13 11 0 20
-18 12 -24 12 -33 3z"/>
<path d="M12640 17130 c0 -5 7 -10 15 -10 8 0 15 5 15 10 0 6 -7 10 -15 10 -8
0 -15 -4 -15 -10z"/>
<path d="M12923 17133 c-7 -2 -13 -11 -13 -19 0 -8 6 -14 13 -14 21 0 40 17
33 29 -8 12 -13 12 -33 4z"/>
<path d="M10020 17115 c0 -8 5 -15 10 -15 6 0 10 7 10 15 0 8 -4 15 -10 15 -5
0 -10 -7 -10 -15z"/>
<path d="M11498 17123 c-10 -2 -18 -13 -18 -24 0 -30 44 -22 48 9 3 22 1 23
-30 15z"/>
<path d="M12767 17110 c-4 -17 0 -20 29 -20 29 0 34 -3 34 -24 0 -19 6 -25 31
-28 20 -3 33 0 36 9 8 20 -16 43 -43 43 -17 0 -24 6 -24 20 0 15 -7 20 -29 20
-20 0 -30 -6 -34 -20z"/>
<path d="M8900 17107 c0 -10 8 -17 18 -17 9 0 13 4 7 8 -5 4 -13 11 -17 16 -5
5 -8 2 -8 -7z"/>
<path d="M12167 17095 c-10 -14 -28 -25 -41 -25 -28 0 -35 -15 -25 -50 4 -14
7 -21 8 -17 1 4 10 3 21 -3 25 -13 60 -4 60 16 0 8 -4 14 -10 14 -5 0 -10 5
-10 10 0 6 9 10 19 10 11 0 23 -4 26 -10 10 -16 43 -11 57 9 7 10 22 20 32 22
25 5 31 25 11 33 -9 3 -25 -2 -36 -13 -17 -16 -25 -17 -50 -8 -16 6 -29 17
-29 24 0 20 -13 15 -33 -12z"/>
<path d="M9204 17098 c-9 -14 24 -38 42 -31 20 7 13 24 -14 34 -13 5 -24 4
-28 -3z"/>
<path d="M10127 17093 c-15 -15 -5 -40 22 -56 57 -33 69 -14 22 34 -32 31 -34
32 -44 22z"/>
<path d="M8193 17069 c-17 -17 -4 -39 23 -39 19 0 24 5 24 25 0 27 -26 35 -47
14z"/>
<path d="M8985 17070 c-8 -13 13 -40 31 -40 17 0 18 22 2 38 -15 15 -25 15
-33 2z"/>
<path d="M9930 17050 c-22 -5 -23 -7 -7 -13 26 -10 57 -9 57 2 0 13 -22 18
-50 11z"/>
<path d="M10428 17053 c-21 -5 -22 -12 -4 -35 20 -27 36 -22 36 12 0 17 -3 29
-7 29 -5 -1 -16 -3 -25 -6z"/>
<path d="M9170 17040 c0 -5 5 -10 10 -10 6 0 10 5 10 10 0 6 -4 10 -10 10 -5
0 -10 -4 -10 -10z"/>
<path d="M10260 17040 c0 -5 5 -10 10 -10 6 0 10 5 10 10 0 6 -4 10 -10 10 -5
0 -10 -4 -10 -10z"/>
<path d="M11210 17007 c0 -12 52 -67 64 -67 3 0 6 11 6 25 0 14 5 25 10 25 6
0 10 7 10 15 0 11 -12 15 -45 15 -29 0 -45 -4 -45 -13z"/>
<path d="M11862 17003 c2 -12 14 -19 36 -21 27 -3 32 0 32 17 0 17 -6 21 -36
21 -28 0 -35 -3 -32 -17z"/>
<path d="M9460 16951 c0 -26 3 -30 28 -27 21 1 26 6 24 21 -8 43 -52 47 -52 6z"/>
<path d="M9248 16949 c-14 -15 -14 -18 -2 -23 8 -3 17 1 20 9 10 24 0 32 -18
14z"/>
</g>
</svg>
